<?xml version="1.0" encoding="UTF-8"?>
<svg id="object" xmlns="http://www.w3.org/2000/svg" viewBox="0 0 339.62 339.62">
  <defs>
    <style>
      .cls-1 {
        fill: #c1dcf2;
      }

      .cls-2 {
        font-size: 20.08px;
        letter-spacing: .2em;
      }

      .cls-2, .cls-3 {
        fill: #272525;
        font-family: MaokenAssortedSansTC, MaokenAssortedSans-TC;
      }

      .cls-4 {
        fill: #c3d8cc;
      }

      .cls-5 {
        letter-spacing: -.01em;
      }

      .cls-3 {
        font-size: 78.94px;
      }
    </style>
  </defs>
  <g>
    <path class="cls-1" d="M213.41,107.99c.05-4.29-.7-8.65-2.29-12.6-1.65-3.92-3.81-7.51-6.53-10.34.3-1.56.22-4.05-1.72-6.51-2.58-3.36-6.27-6.94-10.44-9.26-4.13-2.42-8.77-3.18-12.01-2.31-1.17-.82-2.54-1.39-3.81-1.71-1.28-.27-2.46-.21-3.27-.02-1.22.26-2.44.57-3.66.86-.88.17-1.73.33-2.58.5-.13,0-.28,0-.41-.01-2.06-.02-4.16-.07-6.23,0-1.05.04-2.03.1-3.1.24-1.24.2-2.46.46-3.63.8.06.01.14.03.23.04-.53.05-1.06.1-1.58.18-2.66.36-5.29,1.03-7.71,2.03-5.37,2.73-11.22,6.17-13.82,10.08-1.55,2.63-3.03,4.85-4.3,7.05-.06.07-.11.14-.17.2-.32.28-.63.61-.92.97-.01.01-.03.03-.04.04h0c-.32.41-.62.85-.84,1.36.28-.52.58-.95.88-1.32l.28.21c-.27.52-.52,1.07-.76,1.6-2,2.69-3.53,6.67-4.78,7.54.9,1.68,1.5-.99,2.25-3.24-.37,1.19-.64,2.53-.96,3.88-.23,1.37-.47,2.77-.69,4.12-.02.16-.04.3-.06.45-.07-1.17-.42-2.05.46-3.2-.3-.74-.67-.57-1.15.21-.39,2.64-1.35,7.64-.31,7.95-.17.54-.37,1.04-.63,1.48l.9,1.31c-.08.2-.12.39-.18.59.12-.16.24-.33.35-.51.35,3.41.76,7.1,2.39,9.31.34.19.62.31.85.4-.2,1.03-.65-.32-1.22-.52.64,2.31,1.44,3.96,2.46,4.29-.36-1.25-.77-2.47-1.06-3.72.35.11.6.12.78.06.95,1.04,1.78,1.84,1.77,2.28.37,1.6.63,3.05.87,4.44,0,0,0,0,0,0,0,0,0,.01.01.02.2,1.15.39,2.25.59,3.32-.1-.02-.2-.04-.3-.07-.69-1.48-1.84-3.5-2.08-4.36.07,1.01.19,2.02.39,3.02l.97.57c.18.4.17.64.1.8-.02.02-.04.06-.06.09-.08.1-.19.16-.27.2.04.05.09.09.13.15-.03.11-.06.2-.08.36l.33-.07c.29.33.57.66.86.98.1.01.14-.06.17-.13.07,1.48.06,3.02,1.72,5.3.04,0,.1.02.14.02.62,1.29,1.43,2.61,2.55,3.96.2.34,1.37.84,2.55,1.18.08.07.14.12.22.19.92.23,1.47.26,1.8.17.42.02.74,0,.82-.09-.14-1.11-1.22-2.8-2.31-4.55.12.1.23.23.36.33l-.15-.26c-.09-.03-.15-.06-.22-.09-.87-1.4-1.75-2.83-2.14-4.01.14-1.09.14-1.7.18-2.72.09-1.6,2.22.12,2.88.41-.04-1.56-.57-3.21-1.27-4.99,1.33,1.78,2.82,3.43,4.48,4.91l-.6.51c1.61,1.12,1.18,2.27,3.18,3.33l.06.04h0c.13-1.16-.75-1.89-1.42-2.86,4.7,3.79,10.45,6.33,16.79,7.07l9.56,1.11c1.59.18,3.15.21,4.7.17-1.57.78-3.2,1.43-4.92,1.78.21,1.67.41,3.47,1.61,5.05,1.19,1.59,3.47,2.95,7.77,2.96,1.29-.02,2.59-.23,3.88-.52,1.93.11,4.06.04,6.33-.36.5-.43,1.06-.87,1.67-1.3.58-.48,1.21-.97,1.87-1.46,1.34-.93,2.69-2.02,4.04-3.09.5-.4.99-.81,1.47-1.22.31-.08.61-.17.92-.26.5-.72,1.33-1.61,2.12-2.54,0,0,.01-.01.02-.02.83-.82,1.6-1.62,2.21-2.33,4.66-3.81,8.07-8.77,10.14-14.07.5-1.33.9-2.69,1.31-4.03.37-1.36.58-2.74.84-4.11.26-1.37.28-2.75.39-4.13.12-1.55.08-2.25.08-3.53ZM127.56,131.02l.13-.03c.02.16.03.31.04.47-.04-.13-.11-.29-.17-.44Z"/>
    <path class="cls-4" d="M164.94,152.37c-.74,0-1.9-.27-1.53-.77l-1.12.5,3.32.48c-.56-.61-1.58-1.1-1.46-1.9l-1.43-.28c1.31.63,1.62,1.34,2.2,1.97Z"/>
    <path class="cls-4" d="M165.53,151.03c.64-.57-.26-.92-1.42-1.2-1.29.35,1.81-.11.79.92.31.04.54.07.63.28Z"/>
    <path class="cls-4" d="M164.9,150.75c-.21-.03-.46-.05-.74-.14,0,.03.01.05,0,.08l.68.13s.03-.05.06-.07Z"/>
    <path class="cls-4" d="M156.92,150.23c.04.18.18.39.53.62.05-.17-.22-.39-.53-.62Z"/>
    <path class="cls-1" d="M155.82,148.06c.87.49,1.33.86,1.01,1.38l-.73-.22c-.19.31.36.68.82,1.02-.14-.72,1.39-1.17-1.1-2.17Z"/>
    <path class="cls-1" d="M160.33,147.3l-.53.14,3.26,1.69c-.14-1.35-1.58-.56-2.73-1.83Z"/>
    <path class="cls-1" d="M123.02,127.75l.12-.28c-.1-.09-.24-.21-.35-.31.06.18.13.36.23.59Z"/>
    <path class="cls-1" d="M121.87,123.56c.07,1.04.18,2.08.38,3.11.22.17.37.32.54.49-.66-1.91.28-1.57-.92-3.6Z"/>
    <path class="cls-1" d="M123.15,127.47c.9.99,1.22,1.85,1.55,2.9.31,1.06.76,2.25,2.06,3.61-1.02-2.65-2.34-5.06-3.38-7.01l-.23.49Z"/>
  </g>
  <text class="cls-3" transform="translate(15.01 230.28)"><tspan x="0" y="0">Shu</tspan><tspan class="cls-5" x="140.38" y="0">T</tspan><tspan x="194.04" y="0">ing</tspan></text>
  <text class="cls-2" transform="translate(123.63 268.98)"><tspan x="0" y="0">個人網站</tspan></text>
</svg>